<?xml version="1.0" encoding="UTF-8" standalone="no"?>
<!-- Created with Inkscape (http://www.inkscape.org/) -->

<svg
   width="8.9666958in"
   height="8.9666958in"
   viewBox="0 0 645.6021 645.6021"
   version="1.1"
   id="svg5"
   xmlns="http://www.w3.org/2000/svg"
   xmlns:svg="http://www.w3.org/2000/svg">
  <defs
     id="defs2" />
  <g
     id="g1"
     transform="matrix(1.1636477,0,0,1.1636477,-31.662125,-32.3275)">
    <path
       id="path33332"
       style="fill:#ebdb43;fill-opacity:1;stroke:#eede38;stroke-width:0.999997;stroke-linejoin:round;stroke-opacity:1"
       d="M 171.714,62.325049 A 276.87931,276.87931 0 0 1 547.52372,172.28584 276.87931,276.87931 0 0 1 437.56295,548.09554 276.87931,276.87931 0 0 1 61.753265,438.13478 276.87931,276.87931 0 0 1 171.714,62.325049 Z" />
    <path
       id="path33819"
       style="fill:#62385e;fill-opacity:1;stroke:#4e2c4f;stroke-width:0.999997;stroke-opacity:1"
       d="m 131.04375,154.9971 c -0.3492,0.0242 -0.7296,0.10473 -1.1674,0.19042 -3.568,0.69842 -7.3962,26.09176 -5.4404,36.0835 1.1025,5.63255 1.0229,6.45209 -0.6563,6.78076 -2.2669,0.44374 -16.7233,-12.8475 -25.473698,-23.42139 -8.722201,-10.53996 -11.316099,-10.38641 -10.772399,0.63429 0.2366,4.79628 0.4008,5.06757 4.782698,7.83837 -2.9452,0.57652 -12.154788,6.68038 -0.2695,20.37891 0.9444,2.42528 1.0411,3.70258 0.2901,3.84961 -0.6183,0.121 -6.328798,-3.02163 -12.691488,-6.98437 -12.416403,-7.73313 -15.468903,-8.99716 -17.945703,-7.44435 -2.2881,1.43451 0.8494,11.39988 6.996,22.22754 2.6552,4.67744 4.8666,8.7042 4.9146,8.94873 0.2277,1.16676 -3.0945,0.75438 -10.27,-1.2788 -8.7002,-2.46522 -11.7485,-1.80433 -11.9795,2.60009 -0.1893,3.608 7.1449,14.95709 11.6938,18.09522 4.8841,3.36953 3.6592,5.0579 -3.4936,4.81641 -7.4529,-0.25164 -9.6729,0.35121 -11.3086,3.06885 -1.3562,2.2527 -1.3059,2.53596 1.1484,6.28564 1.4137,2.15972 3.7906,5.45645 5.2822,7.32715 1.4916,1.87069 2.5269,3.89658 2.2998,4.5 -0.2271,0.60342 -2.2191,1.44991 -4.4282,1.88232 -9.0221,1.76598 -9.6341,7.18084 -1.4868,13.16162 l 4.8296,3.54346 -2.6001,2.84473 c -3.5006,3.83033 -2.3968,6.49515 3.7617,9.08202 l 4.8969,2.05665 -1.6405,2.61474 c -0.9027,1.43853 -1.5521,3.0733 -1.4429,3.63135 0.3269,1.66936 5.3292,4.33564 8.4258,4.49121 3.0098,0.1511 4.169,2.39406 2.6645,4.86182 -1.504,2.46679 -0.8408,8.67262 6.023503,5.82129 2.341,-0.97242 4.3571,2.02127 4.3476,2.67041 -0.01,0.6492 1.0044,3.84592 2.7612,5.0288 2.6263,1.76817 3.89069,0.18768 5.20019,-1.0371 1.994498,-1.86528 4.562698,-2.41938 4.832598,-1.04151 0.1125,0.57378 -0.3758,3.06884 -1.0826,5.54444 -1.5884,5.5641 -0.1685,7.01417 3.7925,3.87011 4.274499,-3.39268 5.099199,-3.1827 5.373099,1.36817 0.1331,2.21286 0.7804,4.38263 1.4355,4.82373 2.1735,1.46329 7.0547,-2.08218 10.4165,-7.56592 3.1735,-5.17678 5.269,-6.89795 5.7026,-4.68311 0.3125,1.59621 6.129,-1.12789 8.105,-3.79541 0.9057,-1.22269 22.1546,-8.45971 22.6773,-8.56201 1.3749,-0.2691 8.2485,0.91575 7.9292,2.49903 -2.051,10.1649 -28.5429,32.41794 -55.4619,46.58789 -13.465697,7.08817 -16.148987,9.33621 -15.017597,12.583 0.6306,1.80987 17.429997,-0.25971 17.523897,0.21973 0.094,0.4794 -3.3578,3.77996 -7.671398,7.33301 -16.159189,13.30998 -20.556789,19.37655 -16.180689,22.32276 1.5123,1.01815 2.4252,0.79644 7.16899,-1.75196 2.990998,-1.60675 8.267799,-5.22409 11.724599,-8.03613 3.456998,-2.81206 7.682898,-5.92673 9.391098,-6.92285 4.8754,-2.84297 3.7039,-0.30445 -4.3125,9.3413 -12.107199,14.56787 -22.312587,29.02519 -22.458987,31.81934 -0.1515,2.88518 1.5952,4.1373 4.90439,3.51709 1.0557,-0.19855 5.342298,-3.54717 9.525799,-7.44287 7.933998,-7.38807 9.603598,-2.13461 6.552298,4.41943 -3.0512,6.55404 -6.124298,13.87683 -6.827698,16.27442 l -1.275801,4.36081 c -1.2759,2.10885 4.375101,4.5648 5.922299,2.60302 0.5773,-0.73192 4.4812,-4.02322 10.8984,-11.74508 2.6944,-3.24215 5.3473,-5.57361 5.9107,-5.19434 0.5633,0.37928 0.038,4.20009 -1.1689,8.51367 -2.5587,9.14283 -2.1372,13.285 1.5117,14.90628 3.7947,1.68615 5.7606,0.87112 9.2958,-3.85403 2.8163,-3.76395 10.7403,-20.22088 10.4502,-21.70312 -0.059,-0.30458 0.8271,-2.95299 1.9703,-5.88721 1.143,-2.9342 1.9282,-6.26926 1.7461,-7.41065 -0.4128,-2.59027 5.2529,-10.00136 5.7407,-7.50879 0.1751,0.89592 -0.6068,4.96468 -1.7388,9.03955 -2.7931,10.05531 -4.6352,32.1629 -2.8418,34.10157 1.8077,1.9542 4.8056,8e-5 6.7149,-4.3755 1.0829,-2.48212 3.8979,-3.30412 4.1543,-1.32712 0.469,3.64965 2.0465,3.96495 4.3242,2.14597 4.2281,-3.37695 6.3034,-3.98085 9.1729,-14.70703 l 2.5063,-9.3706 1.5366,6.26514 c 1.7584,7.16388 3.6596,8.3824 6.6269,4.25098 1.0184,-1.41777 2.3672,-2.68015 2.9986,-2.80372 2.0101,-0.39346 5.1608,-6.57863 5.8931,-11.5708 1.2452,-8.48914 2.3244,-12.95628 3.1713,-13.12207 0.4534,-0.0888 1.7898,1.05634 2.9693,2.54443 1.1794,1.48805 2.6519,2.60468 3.2739,2.48291 0.622,-0.12171 3.6587,-2.36456 6.7471,-4.98486 5.7667,-4.89258 8.092,-8.64345 8.7583,-14.13135 0.2091,-1.72409 0.8206,-3.38329 1.3594,-3.68847 1.1647,-0.65968 6.3004,9.16425 7.204,13.78125 0.5976,3.05306 5.5516,7.16376 7.8252,11.01708 1.8621,-0.57289 9.6289,1.80858 9.5948,3.98585 -0.1179,7.51219 2.3995,15.52827 6.3427,21.86865 1.9494,3.1343 4.513,5.79116 6.5464,8.85641 1.7532,2.64285 2.4735,5.9178 4.292,8.4624 l -0.5595,9.59625 c -2.9503,4.9938 -6.3197,13.13618 -7.8985,16.40918 -4.5528,9.4359 -9.2648,18.80955 -13.582,28.35937 -1.4613,3.23258 -3.0221,6.41888 -4.3243,9.72218 -0.4065,1.03102 -1.27,2.81212 -0.2504,3.7368 0.9162,0.83085 1.7993,-0.0794 2.3877,-0.79253 1.5189,-1.84102 2.7477,-4.0536 4.0019,-6.08347 3.7749,-6.1092 7.5812,-12.20183 11.3892,-18.29153 1.4314,-2.28885 4.9171,-8.08402 7.0444,-11.92965 l -1.604,27.5127 -1.1879,16.61865 c 1.186,0.2502 2.4282,-1.28362 2.4023,-1.46632 4.3811,-13.96148 6.4828,-29.04368 9.2358,-43.6377 1.4647,-7.76355 1.8759,-16.9635 6.9463,-23.41695 1.5288,-1.9455 3.7957,-1.93853 5.9004,-2.8872 4.6241,-2.08433 8.9504,-3.74558 13.7578,-5.3892 8.5741,-2.93115 15.722,-8.79743 20.5606,-16.40918 1.6,-2.51709 3.3408,-5.4399 3.8276,-8.43896 0.4418,-2.72301 0.6247,-5.58492 -0.9493,-7.59082 -4.5753,-5.83112 -13.0141,-15.02417 -20.7744,-7.92627 -1.5675,1.05857 -2.8244,2.7446 -3.9814,4.32715 -2.71,3.70741 -4.5823,7.95972 -6.8291,11.96484 -2.6569,4.73585 -5.0802,11.61302 -7.8648,14.26609 -1.7446,1.66237 -6.3867,3.3897 -6.3867,3.3897 -0.5948,-2.04158 -1.8348,-3.94635 -2.0537,-6.0718 -1.0336,-10.04087 4.6951,-20.09273 3.6548,-30.06006 -0.2556,-2.44847 -2.8193,-7.47792 -4.27,-9.66211 1.2517,-2.37981 0.4442,-4.95183 -0.8321,-4.94971 -4.1748,0.007 -6.6646,-2.21208 -9.4438,-3.8833 -0.5868,-0.35288 -3.1184,-3.22883 -1.9511,-10.25977 0.4043,-2.43511 0.2971,-8.29987 -0.2373,-13.03125 -0.857,-7.59139 -1.3152,-9.04439 -3.9126,-12.35888 -4.5926,-5.86046 -4.6122,-8.28499 -0.092,-11.78614 9.1476,-7.08628 12.5601,-13.44967 9.6885,-18.06738 -2.5338,-4.07462 -1.7583,-5.62742 4.503,-6.49072 5.5028,-0.75874 12.0768,-0.0365 14.8125,-9.03516 0.6273,-1.66767 0.1593,-4.7394 -2.5562,-5.72754 -0.6603,-0.2403 4.9292,-0.87444 10.1719,-3.64306 5.2103,-2.75154 6.2346,-2.64782 6.8877,0.68848 0.653,3.33645 2.1234,3.61466 10.768,2.03613 4.1862,-0.76441 9.1682,-1.02414 11.1372,-0.58008 3.1841,0.71804 4.0635,0.50385 8.3013,-2.00684 3.9336,-2.33046 5.2774,-2.69877 7.8926,-2.16943 2.4668,0.4993 4.0588,0.18312 7.3169,-1.45752 2.4004,-1.20877 5.9133,-2.14307 8.2983,-2.20459 3.0848,-0.0796 5.0216,-0.79194 7.6157,-2.80371 1.9134,-1.48374 5.2035,-3.37373 7.3125,-4.19971 2.1087,-0.82595 4.8289,-2.55359 6.0455,-3.83789 1.6387,-1.73001 4.0453,-2.69286 9.2812,-3.71777 5.3796,-1.05301 7.7865,-2.03778 10.0737,-4.12647 2.4144,-2.20476 4.025,-2.82336 8.1988,-3.14208 3.9305,-0.30009 6.30443,-1.12852 9.75728,-3.40577 2.5101,-1.65533 7.76633,-3.88138 11.67923,-4.94531 3.91297,-1.06397 7.9143,-2.58699 8.89305,-3.38672 2.19855,-1.79639 2.7474,-5.6289 0.9756,-6.82178 -2.6013,-1.75122 -1.52468,-2.51313 5.49022,-3.88623 11.12303,-2.17726 24.13328,-9.08196 23.47268,-12.45703 -0.3222,-1.64571 -1.73265,-5.4269 12.65625,-9.79248 4.764,-1.44538 65.5011,-25.93362 70.49122,-36.02051 1.0224,-2.06677 3.43268,-4.36501 4.6245,-5.55029 1.52903,-1.5206 2.0025,-3.11708 1.60838,-5.42138 -0.30713,-1.79616 -0.4437,-4.57701 -0.30323,-6.18018 0.414,-4.72168 -1.5435,-3.11675 -5.23387,4.29199 -5.6784,11.40011 -10.87613,16.59399 -13.85303,13.83984 -1.3437,-1.24315 -2.25142,-0.81723 -8.74807,4.11329 -10.2504,7.77939 -14.05178,9.39943 -28.35353,12.09228 -15.89977,2.99379 -58.26412,4.62416 -60.39255,2.32324 -0.3633,-0.39264 3.91665,-1.81887 9.5142,-3.16846 10.06628,-2.42709 15.39233,-5.06952 14.93408,-7.41064 -0.35243,-1.8005 -7.76055,-1.05367 -27.4497,2.76123 -9.71303,1.882 -22.48178,3.90444 -28.37701,4.4956 -5.8951,0.59115 -19.3533,2.08093 -29.9047,3.31056 -16.8048,1.95834 -26.3892,2.66118 -34.0635,2.49902 -2.7865,-0.0589 -6.7393,-5.45367 -7.7388,-10.56006 -0.9752,-4.98241 -4.0134,-7.07029 -14.5313,-9.9917 -11.578,-3.21588 -19.2343,-2.69397 -34.9775,2.3877 -7.1961,2.32284 -15.9236,5.09089 -19.3931,6.14941 -3.4694,1.05854 -9.1137,3.53402 -12.5419,5.50342 -3.4284,1.96942 -8.1684,4.26625 -10.5323,5.10351 -2.3637,0.83724 -7.2292,2.88166 -10.8149,4.54395 -6.2979,2.91964 -6.6583,2.98042 -10.5835,1.76953 -3.8333,-1.18252 -4.1223,-1.53671 -5.0874,-6.25928 -0.7561,-3.70018 -1.9599,-5.98856 -4.6187,-8.77295 l -3.5977,-3.76757 -6.7148,1.38134 c -3.6931,0.75941 -8.7709,1.64517 -11.2837,1.96875 l -4.5673,0.59033 -6.4322,-30.19921 c -5.6364,-26.46494 -6.6804,-30.36081 -8.4375,-31.54248 -1.1025,-0.74157 -2.6012,-0.9741 -3.3325,-0.51563 -2.8284,1.77324 -3.2753,21.12986 -0.7178,31.10596 1.3393,5.22472 1.2918,5.48905 -1.1337,6.26367 -1.3932,0.4449 -3.1371,0.31543 -3.876,-0.28858 -0.7389,-0.60396 -3.4047,-6.55306 -5.9238,-13.21875 -8.7897,-23.25799 -9.7349,-25.86901 -12.1803,-25.69921 z m 121.1075,260.74511 c 4.8197,7.54051 5.6581,1.52026 6.4248,2.80225 -0.01,0.0314 -0.023,0.0596 -0.032,0.0908 0.023,-0.0133 0.038,-0.0248 0.062,-0.0381 0.5445,0.9431 0.9365,2.07785 1.0752,3.44092 0.4639,4.56018 -1.5782,10.78204 -1.8732,15.45388 -0.1934,3.06351 0.5859,6.97818 -1.355,9.68808 -1.8471,2.57928 -7.4591,2.83969 -9.8133,-0.17517 -2.5401,-3.2528 -2.8939,-8.39877 -3.1992,-12.33984 -0.1375,-1.77503 0.764,-4.68246 1.8193,-7.63184 2.255,0.28976 6.6524,-2.25668 6.1524,-3.42773 1.1631,-0.57946 -0.3772,-7.29047 0.7397,-7.86329 z m 48.1391,15.79102 c 3.8459,0.11124 6.959,3.65349 6.3633,8.27783 -0.9808,7.61239 -13.844,16.0517 -19.6728,20.55028 -8.0095,6.86887 -14.4406,-1.40393 3.0849,-17.31005 2.9873,-2.71134 2.5606,-8.15494 6.2447,-10.39892 1.3343,-0.81272 2.698,-1.15621 3.9799,-1.11914 z" />
  </g>
</svg>
